P3
8 8
256
0 0 0
0 0 0
255 222 36
32 89 168
0 0 0
0 0 0
218 56 50
0 0 0
255 222 36
0 0 0
0 0 0
0 0 0
255 222 36
218 56 50
255 222 36
218 56 50
218 56 50
32 89 168
218 56 50
255 222 36
0 0 0
32 89 168
0 0 0
0 0 0
0 0 0
218 56 50
0 0 0
0 0 0
32 89 168
0 0 0
32 89 168
218 56 50
218 56 50
0 0 0
218 56 50
0 0 0
0 0 0
255 222 36
0 0 0
255 222 36
32 89 168
0 0 0
32 89 168
0 0 0
255 222 36
32 89 168
255 222 36
0 0 0
0 0 0
0 0 0
218 56 50
255 222 36
0 0 0
0 0 0
218 56 50
32 89 168
255 222 36
218 56 50
0 0 0
0 0 0
32 89 168
218 56 50
0 0 0
218 56 50
